<?xml version="1.0" encoding="UTF-8" standalone="no"?>
<svg
   width="2560"
   height="1570"
   viewBox="0 0 2560 1570"
   xml:space="preserve"
   overflow="hidden"
   version="1.1"
   id="svg88"
   sodipodi:docname="hpsu.svg"
   inkscape:version="1.4 (86a8ad7, 2024-10-11)"
   xmlns:inkscape="http://www.inkscape.org/namespaces/inkscape"
   xmlns:sodipodi="http://sodipodi.sourceforge.net/DTD/sodipodi-0.dtd"
   xmlns="http://www.w3.org/2000/svg"
   xmlns:svg="http://www.w3.org/2000/svg"><sodipodi:namedview
     id="namedview88"
     pagecolor="#ffffff"
     bordercolor="#000000"
     borderopacity="0.25"
     inkscape:showpageshadow="2"
     inkscape:pageopacity="0.0"
     inkscape:pagecheckerboard="0"
     inkscape:deskcolor="#d1d1d1"
     inkscape:zoom="0.90509668"
     inkscape:cx="2186.5067"
     inkscape:cy="1138.5524"
     inkscape:window-width="1920"
     inkscape:window-height="1129"
     inkscape:window-x="-8"
     inkscape:window-y="-8"
     inkscape:window-maximized="1"
     inkscape:current-layer="layer1"
     showgrid="false" /><defs
     id="defs12"><linearGradient
       x1="362"
       y1="761.5"
       x2="362"
       y2="1280.5"
       gradientUnits="userSpaceOnUse"
       spreadMethod="reflect"
       id="fill0"
       gradientTransform="matrix(0.95,0,0,0.95,-154.8875,-267.9625)"><stop
         offset="0"
         stop-color="#4472C4"
         id="stop1" /><stop
         offset="0.74"
         stop-color="#ABC0E4"
         id="stop2" /><stop
         offset="0.83"
         stop-color="#ABC0E4"
         id="stop3" /><stop
         offset="1"
         stop-color="#C7D5ED"
         id="stop4" /></linearGradient><linearGradient
       x1="362"
       y1="761.5"
       x2="362"
       y2="1280.5"
       gradientUnits="userSpaceOnUse"
       spreadMethod="reflect"
       id="fill1"
       gradientTransform="matrix(0.95,0,0,0.95,-154.8875,-267.9625)"><stop
         offset="0"
         stop-color="#4472C4"
         id="stop5" /><stop
         offset="0.74"
         stop-color="#ABC0E4"
         id="stop6" /><stop
         offset="0.83"
         stop-color="#ABC0E4"
         id="stop7" /><stop
         offset="1"
         stop-color="#C7D5ED"
         id="stop8" /></linearGradient><linearGradient
       x1="362"
       y1="761.5"
       x2="362"
       y2="1280.5"
       gradientUnits="userSpaceOnUse"
       spreadMethod="reflect"
       id="fill2"
       gradientTransform="matrix(0.95,0,0,0.95,-154.8875,-267.9625)"><stop
         offset="0"
         stop-color="#4472C4"
         id="stop9" /><stop
         offset="0.74"
         stop-color="#ABC0E4"
         id="stop10" /><stop
         offset="0.83"
         stop-color="#ABC0E4"
         id="stop11" /><stop
         offset="1"
         stop-color="#C7D5ED"
         id="stop12" /></linearGradient></defs><g
     inkscape:groupmode="layer"
     id="layer1"
     inkscape:label="Layer 1"
     transform="translate(1.5625,-1.5625)"><rect
       x="382.33749"
       y="396.5625"
       width="544.34998"
       height="18.049906"
       stroke="#404040"
       stroke-width="4.58333"
       stroke-miterlimit="8"
       fill="#7f7f7f"
       id="rect12" /><path
       d="m 1369.3875,1428.0583 -89.6562,-63.4457"
       stroke="#595959"
       stroke-width="7.61979"
       stroke-miterlimit="8"
       fill="none"
       fill-rule="evenodd"
       id="path12"
       sodipodi:nodetypes="cc" /><path
       d="m 1334.513,199.4375 43.8758,159.0697"
       stroke="#595959"
       stroke-width="7.61979"
       stroke-miterlimit="8"
       fill="none"
       fill-rule="evenodd"
       id="path13"
       sodipodi:nodetypes="cc" /><path
       d="M 650.57665,201.3375 571.86222,387.2449"
       stroke="#595959"
       stroke-width="7.61979"
       stroke-miterlimit="8"
       fill="none"
       fill-rule="evenodd"
       id="path14" /><path
       d="M 931.2285,199.4375 851.16193,325.474"
       stroke="#595959"
       stroke-width="7.61979"
       stroke-miterlimit="8"
       fill="none"
       fill-rule="evenodd"
       id="path15" /><rect
       x="2310.8374"
       y="821.21252"
       width="18.049999"
       height="123.5"
       stroke="#2f528f"
       stroke-width="4.58333"
       stroke-miterlimit="8"
       fill="#4472c4"
       id="rect15" /><rect
       x="2180.6875"
       y="124.8625"
       width="19.000191"
       height="284.04999"
       stroke="#2f528f"
       stroke-width="4.35416"
       stroke-miterlimit="8"
       fill="#4472c4"
       id="rect16" /><rect
       x="1059.6875"
       y="396.5625"
       width="1452.55"
       height="18.049906"
       stroke="#2f528f"
       stroke-width="4.58333"
       stroke-miterlimit="8"
       fill="#4472c4"
       id="rect17" /><rect
       x="1703.7875"
       y="996.96252"
       width="209.95"
       height="18.05019"
       stroke="#2f528f"
       stroke-width="4.58333"
       stroke-miterlimit="8"
       fill="#4472c4"
       id="rect18" /><path
       d="m 1255.112,924.7625 -21.1978,-78.85"
       stroke="#595959"
       stroke-width="13.7189"
       stroke-miterlimit="8"
       fill="none"
       fill-rule="evenodd"
       id="path18"
       style="stroke-width:8.16335;stroke-dasharray:none" /><path
       d="m 2127.0125,663.9875 0.7505,120.175"
       stroke="#595959"
       stroke-width="7.61979"
       stroke-miterlimit="8"
       fill="none"
       fill-rule="evenodd"
       id="path19" /><rect
       x="2309.8875"
       y="124.8625"
       width="19"
       height="605.15002"
       stroke="#2f528f"
       stroke-width="4.58333"
       stroke-miterlimit="8"
       fill="#4472c4"
       id="rect19" /><path
       d="m 1936.0625,418.4201 0.1522,-142.0326"
       stroke="#595959"
       stroke-width="7.61979"
       stroke-miterlimit="8"
       fill="none"
       fill-rule="evenodd"
       id="path20" /><path
       d="M 511.80445,717.786 382.8125,701.9875"
       stroke="#595959"
       stroke-width="7.61979"
       stroke-miterlimit="8"
       fill="none"
       fill-rule="evenodd"
       id="path21" /><rect
       x="366.1875"
       y="996.01251"
       width="560.5"
       height="18.999907"
       stroke="#404040"
       stroke-width="4.58333"
       stroke-miterlimit="8"
       fill="#7f7f7f"
       id="rect21" /><path
       d="m 1644.3365,762.3125 h 609.501 v 18.544 H 1660.781 v 178.106 h -18.7435 V 762.322 h 2.299 z"
       stroke="#2f528f"
       stroke-width="4.58333"
       stroke-miterlimit="8"
       fill="#4472c4"
       fill-rule="evenodd"
       id="path22" /><rect
       x="1052.0875"
       y="996.01251"
       width="552.90002"
       height="18.999907"
       stroke="#2f528f"
       stroke-width="4.58333"
       stroke-miterlimit="8"
       fill="#4472c4"
       id="rect22" /><rect
       x="241.73749"
       y="301.5625"
       width="141.55"
       height="802.75"
       stroke="#2f528f"
       stroke-width="4.58333"
       stroke-miterlimit="8"
       fill="#2f5597"
       id="rect23" /><path
       d="m 241.7375,1104.3125 141.55,-802.75 v 802.75 z"
       stroke="#2f528f"
       stroke-width="0"
       stroke-miterlimit="8"
       fill="#411d07"
       fill-rule="evenodd"
       id="path23" /><path
       d="m 151.4875,830.7125 c 0,-65.056 17.2254,-117.8 38.475,-117.8 21.2496,0 38.475,52.744 38.475,117.8 0,65.056 -17.2254,117.8 -38.475,117.8 -21.2496,0 -38.475,-52.744 -38.475,-117.8 z"
       stroke="#2f528f"
       stroke-width="4.58333"
       stroke-miterlimit="8"
       fill="url(#fill0)"
       fill-rule="evenodd"
       id="path24"
       style="fill:url(#fill0)" /><path
       d="m 149.5875,573.2625 c 0,-65.05885 17.2254,-117.8 38.475,-117.8 21.24865,0 38.475,52.74115 38.475,117.8 0,65.05885 -17.22635,117.8 -38.475,117.8 -21.2496,0 -38.475,-52.74115 -38.475,-117.8 z"
       stroke="#2f528f"
       stroke-width="4.58333"
       stroke-miterlimit="8"
       fill="url(#fill1)"
       fill-rule="evenodd"
       id="path25"
       style="fill:url(#fill1)" /><path
       d="m 223.2562,644.5125 3.2813,0.66215 V 758.7975 l -3.2813,0.665 c -31.76705,0 -57.5187,-25.7355 -57.5187,-57.475 0,-31.74235 25.75165,-57.475 57.5187,-57.475 z"
       stroke="#2f528f"
       stroke-width="4.58333"
       stroke-miterlimit="8"
       fill="url(#fill2)"
       fill-rule="evenodd"
       id="path26"
       style="fill:url(#fill2)" /><rect
       x="927.63751"
       y="301.5625"
       width="141.55"
       height="802.75"
       stroke="#2f528f"
       stroke-width="4.58333"
       stroke-miterlimit="8"
       fill="#2f5597"
       id="rect30" /><path
       d="m 927.6375,1104.3125 141.55,-802.75 v 802.75 z"
       stroke="#2f528f"
       stroke-width="0"
       stroke-miterlimit="8"
       fill="#411d07"
       fill-rule="evenodd"
       id="path30" /><path
       d="m 540.9875,369.0125 62.7,36.575 -62.7,36.575 z"
       stroke="#404040"
       stroke-width="4.58333"
       stroke-miterlimit="8"
       fill="#7f7f7f"
       fill-rule="evenodd"
       id="path38" /><path
       d="m 667.3375,442.1625 -63.65,-36.575 63.65,-36.575 z"
       stroke="#404040"
       stroke-width="4.58333"
       stroke-miterlimit="8"
       fill="#7f7f7f"
       fill-rule="evenodd"
       id="path39" /><g
       id="compressor_on_off_group"
       transform="matrix(0.95,0,0,0.95,-52.2875,-28.5625)"><rect
         style="fill:none;fill-opacity:1;stroke:none;stroke-width:14.4371"
         id="comp_rect"
         width="111.14105"
         height="105.584"
         x="638.20801"
         y="1036.208" /><path
         d="m 748.5,1341 c 0,-27.89 22.609,-50.5 50.5,-50.5 27.89,0 50.5,22.61 50.5,50.5 0,27.89 -22.61,50.5 -50.5,50.5 -27.891,0 -50.5,-22.61 -50.5,-50.5 z"
         stroke="#404040"
         stroke-width="4.58333"
         stroke-miterlimit="8"
         fill="#7f7f7f"
         fill-rule="evenodd"
         id="path40"
         transform="translate(-108,-252)" /><path
         d="M 0,0 77.526428,8.2201418"
         stroke="#404040"
         stroke-width="6.875"
         stroke-miterlimit="8"
         fill="none"
         fill-rule="evenodd"
         transform="matrix(1,0,0,-1,655.5,1125.23)"
         id="path41"
         sodipodi:nodetypes="cc" /><path
         d="m 763.5,1305.5 77.43058,7.3471"
         stroke="#404040"
         stroke-width="6.875"
         stroke-miterlimit="8"
         fill="none"
         fill-rule="evenodd"
         id="path42"
         transform="translate(-108,-252)"
         sodipodi:nodetypes="cc" /></g><g
       id="g3"
       transform="matrix(0.95,0,0,0.95,-52.2875,-28.5625)"><rect
         style="fill:none;fill-opacity:1;stroke:none;stroke-width:14.4369"
         id="circ_pump_rect"
         width="111.14"
         height="105.583"
         x="1470.208"
         y="402.20801" /><path
         d="m 1486.5,707 c 0,-27.89 22.61,-50.5 50.5,-50.5 27.89,0 50.5,22.61 50.5,50.5 0,27.891 -22.61,50.5 -50.5,50.5 -27.89,0 -50.5,-22.609 -50.5,-50.5 z"
         stroke="#2f528f"
         stroke-width="4.58333"
         stroke-miterlimit="8"
         fill="#4472c4"
         fill-rule="evenodd"
         id="path46"
         transform="translate(-14,-252)" /><path
         d="m 1547.5,496.2622 -68,-40.5 68,-40.5 z"
         stroke="#2f528f"
         stroke-width="4.58333"
         stroke-miterlimit="8"
         fill="#2f5597"
         fill-rule="evenodd"
         id="path47"
         inkscape:label="path47" /></g><rect
       x="1531.8375"
       y="376.61249"
       width="124.45"
       height="53.200096"
       stroke="#2f528f"
       stroke-width="4.58333"
       stroke-miterlimit="8"
       fill="#4472c4"
       id="rect47" /><text
       fill="#ffffff"
       font-family="Calibri, Calibri_MSFontService, sans-serif"
       font-weight="400"
       font-size="43.7px"
       id="text47"
       x="1564.47"
       y="417.9375"
       style="stroke-width:0.95">FLS</text><g
       id="g102"
       transform="matrix(0.95,0,0,0.95,-52.2875,-28.5625)"><path
         d="m 1972.5,1370.5 -67,-29.5 67,-29.5 z"
         stroke="#2f528f"
         stroke-width="4.58333"
         stroke-miterlimit="8"
         fill="#4472c4"
         fill-rule="evenodd"
         id="path49"
         transform="translate(-108,-252)" /><path
         d="m 1830.5,1311.5 67,29.5 -67,29.5 z"
         stroke="#2f528f"
         stroke-width="4.58333"
         stroke-miterlimit="8"
         fill="#4472c4"
         fill-rule="evenodd"
         id="path50"
         transform="translate(-108,-252)" /><path
         d="m 1930.5,1260.5 -29.5,67 -29.5,-67 z"
         stroke="#d9d9d9"
         stroke-width="9.16667"
         stroke-miterlimit="8"
         fill="#4472c4"
         fill-rule="evenodd"
         id="path51"
         transform="translate(-108,-252)" /></g><g
       id="g103"
       transform="matrix(0.95,0,0,0.95,-52.2875,-28.5625)"><path
         d="m 2634.5,1023.5 -29.5,67 -29.5,-67 z"
         stroke="#2f528f"
         stroke-width="4.58333"
         stroke-miterlimit="8"
         fill="#4472c4"
         fill-rule="evenodd"
         id="path52"
         transform="translate(-108,-252)" /><path
         d="m 2575.5,1166.5 29.5,-67 29.5,67 z"
         stroke="#2f528f"
         stroke-width="4.58333"
         stroke-miterlimit="8"
         fill="#4472c4"
         fill-rule="evenodd"
         id="path53"
         transform="translate(-108,-252)" /><path
         d="m 2527.5,1065.5 67,29.5 -67,29.5 z"
         stroke="#d9d9d9"
         stroke-width="9.16667"
         stroke-miterlimit="8"
         fill="#4472c4"
         fill-rule="evenodd"
         id="path54"
         transform="translate(-108,-252)" /></g><path
       d="m 604.1625,1053.4875 49.2442,117.097"
       stroke="#595959"
       stroke-width="7.61979"
       stroke-miterlimit="8"
       fill="none"
       fill-rule="evenodd"
       id="path55" /><path
       d="m 1650.426,199.4375 -56.3601,177.07145"
       stroke="#595959"
       stroke-width="7.61979"
       stroke-miterlimit="8"
       fill="none"
       fill-rule="evenodd"
       id="path60" /><rect
       x="1742.7375"
       y="744.26251"
       width="124.45"
       height="53.200001"
       stroke="#2f528f"
       stroke-width="4.58333"
       stroke-miterlimit="8"
       fill="#4472c4"
       id="rect63" /><text
       fill="#ffffff"
       font-family="Calibri, Calibri_MSFontService, sans-serif"
       font-weight="400"
       font-size="43.7px"
       id="text63"
       x="1781.0699"
       y="784.63751"
       style="stroke-width:0.95">DS</text><path
       d="m 1863.1785,663.9875 -59.1656,80.12623"
       stroke="#595959"
       stroke-width="7.61979"
       stroke-miterlimit="8"
       fill="none"
       fill-rule="evenodd"
       id="path63" /><path
       d="m 2120.733,691.0625 h 15.8175 v 69.1695 l 1.9665,0.8075 c 2.5745,2.5555 4.1705,6.08 4.1705,9.975 0,7.7805 -6.384,14.098 -14.25,14.098 -7.866,0 -14.25,-6.3175 -14.25,-14.098 0,-3.895 1.596,-7.4195 4.1705,-9.975 l 2.375,-0.9785 z"
       stroke="#172c51"
       stroke-width="4.58333"
       stroke-miterlimit="8"
       fill="#595959"
       fill-rule="evenodd"
       id="path64" /><path
       d="m 1928.833,324.3625 h 15.8175 v 69.87155 l 1.9665,0.8113 c 2.5745,2.5783 4.1705,6.1389 4.1705,10.07285 0,7.86695 -6.384,14.2443 -14.25,14.2443 -7.866,0 -14.25,-6.37735 -14.25,-14.2443 0,-3.93395 1.596,-7.49455 4.1705,-10.07285 l 2.375,-0.98325 z"
       stroke="#172c51"
       stroke-width="4.58333"
       stroke-miterlimit="8"
       fill="#595959"
       fill-rule="evenodd"
       id="path65" /><path
       d="m 189.9625,948.0375 0.2641,222.4045"
       stroke="#595959"
       stroke-width="7.61979"
       stroke-miterlimit="8"
       fill="none"
       fill-rule="evenodd"
       id="path69" /><path
       d="m 1247.4645,924.7625 h 15.295 v 69.8725 l 1.8905,0.8075 c 2.4985,2.584 4.0375,6.1465 4.0375,10.0795 0,7.866 -6.1655,14.2405 -13.775,14.2405 -7.6095,0 -13.775,-6.3745 -13.775,-14.2405 0,-3.933 1.539,-7.4955 4.0375,-10.0795 l 2.2895,-0.9785 z"
       stroke="#172c51"
       stroke-width="4.58333"
       stroke-miterlimit="8"
       fill="#595959"
       fill-rule="evenodd"
       id="path70" /><rect
       x="2493.2375"
       y="396.5625"
       width="19"
       height="542.45001"
       stroke="#2f528f"
       stroke-width="4.58333"
       stroke-miterlimit="8"
       fill="#4472c4"
       id="rect70" /><rect
       x="2317.4875"
       y="925.71252"
       width="194.75"
       height="18.999907"
       stroke="#2f528f"
       stroke-width="4.58333"
       stroke-miterlimit="8"
       fill="#4472c4"
       id="rect71" /><path
       d="m 1441.5875,1179.049 c 0,-38.6555 31.331,-69.9865 69.9865,-69.9865 h 385.377 c 38.6555,0 69.9865,31.331 69.9865,69.9865 v 279.927 c 0,38.6555 -31.331,69.9865 -69.9865,69.9865 h -385.377 c -38.6555,0 -69.9865,-31.331 -69.9865,-69.9865 z"
       stroke="#2f528f"
       stroke-width="4.35416"
       stroke-miterlimit="8"
       fill="#4472c4"
       fill-rule="evenodd"
       id="path71" /><path
       d="m 1460.5875,1193.451 c 0,-35.0645 28.424,-63.4885 63.4885,-63.4885 h 359.423 c 35.0645,0 63.4885,28.424 63.4885,63.4885 v 253.973 c 0,35.0645 -28.424,63.4885 -63.4885,63.4885 h -359.423 c -35.0645,0 -63.4885,-28.424 -63.4885,-63.4885 z"
       stroke="#2f528f"
       stroke-width="4.35416"
       stroke-miterlimit="8"
       fill="#8faadc"
       fill-rule="evenodd"
       id="path72" /><path
       d="m 1504.1355,1153.361 368.866,32.2715 -1.6435,18.715 -368.866,-32.2715 z"
       stroke="#2f528f"
       stroke-width="4.35416"
       stroke-miterlimit="8"
       fill="#4472c4"
       fill-rule="evenodd"
       id="path73" /><path
       d="m 1505.247,1222.179 368.866,32.2715 -1.6435,18.715 -368.866,-32.2715 z"
       stroke="#2f528f"
       stroke-width="4.35416"
       stroke-miterlimit="8"
       fill="#4472c4"
       fill-rule="evenodd"
       id="path74" /><path
       d="m 1503.043,1286.513 368.866,-32.2715 1.634,18.715 -368.866,32.2715 z"
       stroke="#2f528f"
       stroke-width="4.35416"
       stroke-miterlimit="8"
       fill="#4472c4"
       fill-rule="evenodd"
       id="path75" /><path
       d="m 1501.7225,1218.398 368.866,-32.2715 1.634,18.715 -368.866,32.2715 z"
       stroke="#2f528f"
       stroke-width="4.35416"
       stroke-miterlimit="8"
       fill="#4472c4"
       fill-rule="evenodd"
       id="path76" /><path
       d="m 1502.4255,1351.8255 368.866,-32.2715 1.634,18.715 -368.866,32.2715 z"
       stroke="#2f528f"
       stroke-width="4.35416"
       stroke-miterlimit="8"
       fill="#4472c4"
       fill-rule="evenodd"
       id="path77" /><path
       d="m 1505.494,1286.6175 368.866,32.2715 -1.6435,18.715 -368.866,-32.2715 z"
       stroke="#2f528f"
       stroke-width="4.35416"
       stroke-miterlimit="8"
       fill="#4472c4"
       fill-rule="evenodd"
       id="path78" /><path
       d="m 1502.701,1416.112 368.866,-32.2715 1.634,18.715 -368.866,32.2715 z"
       stroke="#2f528f"
       stroke-width="4.35416"
       stroke-miterlimit="8"
       fill="#4472c4"
       fill-rule="evenodd"
       id="path79" /><path
       d="m 1505.836,1351.9965 368.866,32.2715 -1.6435,18.715 -368.866,-32.2715 z"
       stroke="#2f528f"
       stroke-width="4.35416"
       stroke-miterlimit="8"
       fill="#4472c4"
       fill-rule="evenodd"
       id="path80" /><path
       d="m 1501.922,1415.352 405.7545,35.5015 -1.634,18.715 -405.7545,-35.5015 z"
       stroke="#2f528f"
       stroke-width="4.35416"
       stroke-miterlimit="8"
       fill="#4472c4"
       fill-rule="evenodd"
       id="path81" /><rect
       x="1501.4375"
       y="1004.5625"
       width="19"
       height="167.2"
       stroke="#2f528f"
       stroke-width="4.35416"
       stroke-miterlimit="8"
       fill="#4472c4"
       id="rect81" /><rect
       x="1895.6875"
       y="996.96252"
       width="19"
       height="472.14999"
       stroke="#2f528f"
       stroke-width="4.35416"
       stroke-miterlimit="8"
       fill="#4472c4"
       id="rect82" /><path
       d="m 836.1145,325.3125 h 15.295 v 69.1733 l 1.8905,0.80275 c 2.4985,2.55265 4.0375,6.0781 4.0375,9.97215 0,7.7881 -6.1655,14.1018 -13.775,14.1018 -7.6095,0 -13.775,-6.3137 -13.775,-14.1018 0,-3.89405 1.539,-7.4195 4.0375,-9.97215 l 2.2895,-0.97375 z"
       stroke="#172c51"
       stroke-width="4.58333"
       stroke-miterlimit="8"
       fill="#595959"
       fill-rule="evenodd"
       id="path84" /><path
       d="m 1369.3875,1435.967 v -15.8175 h 69.1695 l 0.8075,-1.9665 c 2.5555,-2.5745 6.08,-4.1705 9.975,-4.1705 7.7805,0 14.098,6.384 14.098,14.25 0,7.866 -6.3175,14.25 -14.098,14.25 -3.895,0 -7.4195,-1.596 -9.975,-4.1705 l -0.9785,-2.375 z"
       stroke="#172c51"
       stroke-width="4.35416"
       stroke-miterlimit="8"
       fill="#595959"
       fill-rule="evenodd"
       id="path87" /><path
       d="m 1924.3443,768.7725 h 65.93 v 5.434 h -65.93 z m 61.579,-5.9945 17.4135,8.7115 -17.4135,8.7115 z"
       fill="#ffffff"
       id="Flow-Arrow-8"
       style="stroke-width:0.95" /><path
       d="m 1648.6875,886.25615 v -66.4278 h 5.434 v 66.4278 z m -5.9945,-62.07395 8.7115,-17.41635 8.7115,17.41635 z"
       fill="#ffffff"
       id="Flow-Arrow-7"
       style="stroke-width:0.95" /><path
       d="m 1295.5725,1003.2705 h 65.93 v 5.434 h -65.93 z m 61.579,-5.9945 17.4135,8.7115 -17.4135,8.7115 z"
       fill="#ffffff"
       id="Flow-Arrow-6"
       style="stroke-width:0.95" /><path
       d="m 2107.3665,402.8325 h -65.93 v 5.434 h 65.93 z m -61.579,-5.9945 -17.4135,8.7115 17.4135,8.7115 z"
       fill="#ffffff"
       id="Flow-Arrow-5"
       style="stroke-width:0.95" /><path
       d="m 1785.9625,402.8325 h -65.93 v 5.434 h 65.93 z m -61.579,-5.9945 -17.4135,8.7115 17.4135,8.7115 z"
       fill="#ffffff"
       id="Flow-Arrow-4"
       style="stroke-width:0.95" /><path
       d="m 1223.8887,402.8325 h -65.93 v 5.434 h 65.93 z m -61.579,-5.9945 -17.4135,8.7115 17.4135,8.7115 z"
       fill="#ffffff"
       id="Flow-Arrow-3"
       style="stroke-width:0.95" /><path
       d="m 740.9625,1002.7745 h 65.93 v 5.434 h -65.93 z m 61.579,-5.9945 17.4135,8.7115 -17.4135,8.7115 z"
       fill="#ffffff"
       id="Flow-Arrow-2"
       style="stroke-width:0.95" /><path
       d="m 787.655,402.86668 h -65.93 v 5.434 h 65.93 z m -61.579,-5.9945 -17.4135,8.7115 17.4135,8.7115 z"
       fill="#ffffff"
       id="Flow-Arrow-1"
       style="stroke-width:0.95" /><rect
       style="fill:none;stroke:none;stroke-width:7.89036"
       id="Bypass-Value"
       width="69.456612"
       height="140.20416"
       x="2351.2249"
       y="702.18542" /><rect
       style="fill:none;stroke:none;stroke-width:4.07678"
       id="DHW-Mixer-Value"
       width="139.25385"
       height="57.650959"
       x="1581.9104"
       y="1037.3499" /><g
       id="Heating-Flow-Arrows"
       transform="matrix(0.95,0,0,0.95,-52.2875,-28.5625)"><path
         d="m 2363.36,166 v 69.924 h -5.72 V 166 Z m 6.31,65.341 -9.17,18.333 -9.17,-18.333 z"
         fill="#ffffff"
         id="path67" /><path
         d="M 2602.14,501.674 V 431.75 h 5.72 v 69.924 z m -6.31,-65.341 9.17,-18.333 9.17,18.333 z"
         fill="#ffffff"
         id="path68"
         transform="translate(-108,-252)" /><path
         d="m 2494.14,492 v -69.924 h 5.72 V 492 Z m -6.31,-65.341 9.17,-18.333 9.17,18.333 z"
         fill="#ffffff"
         id="path68-4" /><path
         d="m 2494.14,725.79829 v -69.924 h 5.72 v 69.924 z m -6.31,-65.341 9.17,-18.333 9.17,18.333 z"
         fill="#ffffff"
         id="path68-8" /></g><g
       id="DHW-Flow-Return-Arrows"
       transform="matrix(0.95,0,0,0.95,-52.2875,-28.5625)"><path
         d="M 2686.71,953.174 V 883.25 h 5.72 v 69.924 z m -6.31,-65.341 9.17,-18.333 9.17,18.333 z"
         fill="#ffffff"
         id="path68-0-2" /><path
         d="m 2686.71,639.19525 v -69.924 h 5.72 v 69.924 z m -6.31,-65.341 9.17,-18.333 9.17,18.333 z"
         fill="#ffffff"
         id="path68-0-2-4" /><path
         d="m 2632.7272,454.1 h -69.4 v 5.72 h 69.4 z m -64.82,-6.31 -18.33,9.17 18.33,9.17 z"
         fill="#ffffff"
         id="path88-9-5" /><path
         d="m 2556.3,1011.58 h 69.4 v 5.72 h -69.4 z m 64.82,-6.31 18.33,9.17 -18.33,9.17 z"
         fill="#ffffff"
         id="path88-9-8" /></g><g
       id="DHW-Flow-Arrows"
       transform="matrix(0.95,0,0,0.95,-52.2875,-28.5625)"><path
         d="m 1997.82,1086.0259 h -69.4 v 5.72 h 69.4 z m -64.82,-6.31 -18.33,9.17 18.33,9.17 z"
         fill="#ffffff"
         id="Flow-Arrow-4-8" /><path
         d="m 2057.14,1393.67 v -69.92 h 5.72 v 69.92 z m -6.31,-65.34 9.17,-18.33 9.17,18.33 z"
         fill="#ffffff"
         id="path83" /><path
         d="m 1799.3326,1541.2532 69.1359,6.0486 -0.4985,5.6982 -69.136,-6.0486 z m 65.1233,-0.6366 17.461,10.7327 -19.0595,7.5375 z"
         fill="#ffffff"
         id="path88-9-2-7" /><path
         d="m 1648.86,1153 v 69.92 h -5.72 V 1153 Z m 6.31,65.34 -9.17,18.33 -9.17,-18.33 z"
         fill="#ffffff"
         id="path82" /></g><g
       id="Speicher-Soll"
       transform="matrix(0.95,0,0,0.95,-52.2875,-83.6625)"><rect
         x="1439.5"
         y="1696.5"
         width="199"
         height="80.000099"
         stroke="#343434"
         stroke-width="4.58333"
         stroke-miterlimit="8"
         fill="#1c1c1c"
         id="Speicher-Soll-Value"
         transform="translate(-108,-252)" /><rect
         x="1439.5"
         y="1616.5"
         width="199"
         height="79.999802"
         stroke="#343434"
         stroke-width="4.58333"
         stroke-miterlimit="8"
         fill="#1c1c1c"
         id="rect86"
         transform="translate(-108,-252)" /><text
         fill="#bfbfbf"
         font-family="Calibri, Calibri_MSFontService, sans-serif"
         font-weight="400"
         font-size="46px"
         transform="translate(1397.6,1419)"
         id="text86">Soll</text></g><g
       id="Speicher"
       transform="matrix(0.95,0,0,0.95,-52.2875,-83.6625)"><rect
         x="1186.5"
         y="1698.5"
         width="242"
         height="80.000099"
         stroke="#343434"
         stroke-width="4.58333"
         stroke-miterlimit="8"
         fill="#1c1c1c"
         id="Speicher-Value"
         transform="translate(-108,-252)" /><rect
         x="1186.5"
         y="1618.5"
         width="242"
         height="80.000099"
         stroke="#343434"
         stroke-width="4.58333"
         stroke-miterlimit="8"
         fill="#1c1c1c"
         id="rect84"
         transform="translate(-108,-252)" /><text
         fill="#bfbfbf"
         font-family="Calibri, Calibri_MSFontService, sans-serif"
         font-weight="400"
         font-size="46px"
         transform="translate(1118.48,1421)"
         id="text84">Speicher</text></g><g
       id="Verdichter"
       transform="matrix(0.95,0,0,0.95,-52.2875,-28.5625)"><rect
         x="673.5"
         y="1594.5"
         width="355"
         height="79.999802"
         stroke="#343434"
         stroke-width="4.58333"
         stroke-miterlimit="8"
         fill="#1c1c1c"
         id="Verdichter-Value"
         transform="translate(-108,-252)" /><rect
         x="673.5"
         y="1514.5"
         width="355"
         height="80.000099"
         stroke="#343434"
         stroke-width="4.58333"
         stroke-miterlimit="8"
         fill="#1c1c1c"
         id="rect37"
         transform="translate(-108,-252)" /><text
         fill="#bfbfbf"
         font-family="Calibri, Calibri_MSFontService, sans-serif"
         font-weight="400"
         font-size="46px"
         transform="translate(644.188,1318)"
         id="text37">Verdichter</text></g><g
       id="Luefter"
       transform="matrix(0.95,0,0,0.95,-52.2875,-28.5625)"><rect
         x="214.5"
         y="1594.5"
         width="298"
         height="79.999802"
         stroke="#343434"
         stroke-width="4.58333"
         stroke-miterlimit="8"
         fill="#1c1c1c"
         id="Luefter-Value"
         transform="translate(-108,-252)" /><rect
         x="214.5"
         y="1514.5"
         width="298"
         height="80.000099"
         stroke="#343434"
         stroke-width="4.58333"
         stroke-miterlimit="8"
         fill="#1c1c1c"
         id="rect35"
         transform="translate(-108,-252)" /><text
         fill="#bfbfbf"
         font-family="Calibri, Calibri_MSFontService, sans-serif"
         font-weight="400"
         font-size="46px"
         transform="translate(198.98,1318)"
         id="text35">Lüfter</text></g><g
       id="Vorlauf-BH"
       transform="matrix(0.95,0,0,0.95,-52.2875,-28.5625)"><rect
         style="fill:none;stroke:none;stroke-width:5.18699"
         id="Vorlauf-BH-2-Value"
         width="235.646"
         height="76.474998"
         x="2018.2375"
         y="587.98749"
         transform="matrix(1.0526316,0,0,1.0526316,55.039474,30.065789)" /><rect
         style="fill:none;stroke:none;stroke-width:5.187"
         id="Vorlauf-BH-1-Value"
         width="235.646"
         height="76.474998"
         x="2018.2375"
         y="511.5126"
         transform="matrix(1.0526316,0,0,1.0526316,55.039474,30.065789)" /><rect
         x="2018.3146"
         y="511.58954"
         width="235.49178"
         height="152.79593"
         stroke="#343434"
         stroke-width="4.50823"
         stroke-miterlimit="8"
         fill="#1c1c1c"
         id="rect65"
         transform="matrix(1.0526316,0,0,1.0526316,55.039474,30.065789)" /><rect
         x="2018.3134"
         y="435.58841"
         width="235.49399"
         height="75.848244"
         stroke="#343434"
         stroke-width="4.50601"
         stroke-miterlimit="8"
         fill="#1c1c1c"
         id="rect64"
         transform="matrix(1.0526316,0,0,1.0526316,55.039474,30.065789)" /><text
         fill="#bfbfbf"
         font-family="Calibri, Calibri_MSFontService, sans-serif"
         font-weight="400"
         font-size="46px"
         id="text64"
         x="2202.9209"
         y="544">Vorlauf BH</text></g><g
       id="Info"
       transform="matrix(0.95,0,0,0.95,-50.807485,553.23936)"><rect
         style="fill:none;stroke:none;stroke-width:7.31104"
         id="info_3"
         width="468.15262"
         height="80.5"
         x="2179.5"
         y="728.44751" /><rect
         style="fill:none;stroke:none;stroke-width:7.12592"
         id="info_2"
         width="444.745"
         height="76.474998"
         x="2019.7175"
         y="1169.7893"
         transform="matrix(1.0526316,0,0,1.0526316,53.481563,-582.35722)" /><rect
         style="fill:none;stroke:none;stroke-width:7.12593"
         id="info_1"
         width="444.745"
         height="76.474998"
         x="2019.7175"
         y="1093.3145"
         transform="matrix(1.0526316,0,0,1.0526316,53.481563,-582.35722)" /></g><g
       id="Druck"
       transform="matrix(0.95,0,0,0.95,-52.2875,-28.5625)"><rect
         x="1975.5"
         y="901.5"
         width="300"
         height="79.999802"
         stroke="#343434"
         stroke-width="4.58333"
         stroke-miterlimit="8"
         fill="#1c1c1c"
         id="Druck-Value"
         transform="translate(-108,-252)" /><rect
         x="1975.5"
         y="821.5"
         width="300"
         height="80.000099"
         stroke="#343434"
         stroke-width="4.58333"
         stroke-miterlimit="8"
         fill="#1c1c1c"
         id="rect61"
         transform="translate(-108,-252)" /><text
         fill="#bfbfbf"
         font-family="Calibri, Calibri_MSFontService, sans-serif"
         font-weight="400"
         font-size="46px"
         transform="translate(1962.62,624)"
         id="text61">Druck</text></g><g
       id="Vorlauf-Soll"
       transform="matrix(0.95,0,0,0.95,-52.2875,-89.3625)"
       style="display:inline"><rect
         x="1591.5"
         y="1076.5"
         width="239"
         height="79.999802"
         stroke="#343434"
         stroke-width="4.58333"
         stroke-miterlimit="8"
         fill="#1c1c1c"
         id="Vorlauf-Soll-Value"
         transform="translate(-108,-252)" /><rect
         x="1591.5"
         y="996.5"
         width="239"
         height="80.000099"
         stroke="#343434"
         stroke-width="4.58333"
         stroke-miterlimit="8"
         fill="#1c1c1c"
         id="rect57"
         transform="translate(-108,-252)" /><text
         fill="#bfbfbf"
         font-family="Calibri, Calibri_MSFontService, sans-serif"
         font-weight="400"
         font-size="46px"
         transform="translate(1569.46,800)"
         id="text57">Soll</text></g><g
       id="Vorlauf"
       transform="matrix(0.95,0,0,0.95,-52.2875,-89.3625)"><rect
         style="fill:none;stroke:none;stroke-width:8.593"
         id="Vorlauf-2-Value"
         width="242"
         height="80.5"
         x="1231.5"
         y="904" /><rect
         style="fill:none;stroke:none;stroke-width:8.593"
         id="Vorlauf-1-Value"
         width="242"
         height="80.5"
         x="1231.5"
         y="759.50012"
         transform="translate(0,64)" /><rect
         x="1339.5"
         y="1075.5"
         width="242"
         height="161"
         stroke="#343434"
         stroke-width="4.58333"
         stroke-miterlimit="8"
         fill="#1c1c1c"
         id="rect56"
         transform="translate(-108,-252)"
         style="display:inline" /><rect
         x="1339.5"
         y="995.5"
         width="242"
         height="80.000099"
         stroke="#343434"
         stroke-width="4.58333"
         stroke-miterlimit="8"
         fill="#1c1c1c"
         id="rect55"
         transform="translate(-108,-252)" /><text
         fill="#bfbfbf"
         font-family="Calibri, Calibri_MSFontService, sans-serif"
         font-weight="400"
         font-size="46px"
         transform="translate(1284.23,798)"
         id="text55">Vorlauf</text></g><g
       id="Verdampfer"
       transform="matrix(0.95,0,0,0.95,-52.2875,-28.5625)"><rect
         x="701.5"
         y="1078.5"
         width="327"
         height="80.000099"
         stroke="#343434"
         stroke-width="4.58333"
         stroke-miterlimit="8"
         fill="#1c1c1c"
         id="Verdampfer-Value"
         transform="translate(-108,-252)" /><rect
         x="701.5"
         y="998.5"
         width="327"
         height="79.999802"
         stroke="#343434"
         stroke-width="4.58333"
         stroke-miterlimit="8"
         fill="#1c1c1c"
         id="rect39"
         transform="translate(-108,-252)" /><text
         fill="#bfbfbf"
         font-family="Calibri, Calibri_MSFontService, sans-serif"
         font-weight="400"
         font-size="46px"
         transform="translate(644.733,802)"
         id="text39">Verdampfer</text></g><g
       id="Ruecklauf"
       transform="matrix(0.95,0,0,0.95,-52.2875,-28.5625)"><rect
         x="1964.8408"
         y="244.42384"
         width="257.31799"
         height="81.317314"
         stroke="#343434"
         stroke-width="3.26569"
         stroke-miterlimit="8"
         fill="#1c1c1c"
         id="Ruecklauf-2-Value" /><rect
         x="1964.8408"
         y="159.84084"
         width="257.31799"
         height="81.317314"
         stroke="#343434"
         stroke-width="3.26569"
         stroke-miterlimit="8"
         fill="#1c1c1c"
         id="Ruecklauf-1-Value" /><rect
         x="2073.5"
         y="412.5"
         width="256"
         height="161"
         stroke="#343434"
         stroke-width="4.58333"
         stroke-miterlimit="8"
         fill="#1c1c1c"
         id="rect60"
         transform="translate(-108,-252)" /><rect
         x="2073.5"
         y="332.5"
         width="256"
         height="80.000099"
         stroke="#343434"
         stroke-width="4.58333"
         stroke-miterlimit="8"
         fill="#1c1c1c"
         id="rect59"
         transform="translate(-108,-252)" /><text
         fill="#bfbfbf"
         font-family="Calibri, Calibri_MSFontService, sans-serif"
         font-weight="400"
         font-size="46px"
         transform="translate(2013.47,135)"
         id="text59">Rücklauf</text></g><g
       id="Durchfluss"
       transform="matrix(0.95,0,0,0.95,-52.2875,-28.5625)"><rect
         x="1751.5"
         y="412.5"
         width="298"
         height="80.000099"
         stroke="#343434"
         stroke-width="4.58333"
         stroke-miterlimit="8"
         fill="#1c1c1c"
         id="Durchfluss-Value"
         transform="translate(-108,-252)" /><rect
         x="1751.5"
         y="332.5"
         width="298"
         height="80.000099"
         stroke="#343434"
         stroke-width="4.58333"
         stroke-miterlimit="8"
         fill="#1c1c1c"
         id="rect48"
         transform="translate(-108,-252)" /><text
         fill="#bfbfbf"
         font-family="Calibri, Calibri_MSFontService, sans-serif"
         font-weight="400"
         font-size="46px"
         transform="translate(1694.43,135)"
         id="text48">Durchfluss</text></g><g
       id="Umwaelzpumpe"
       transform="matrix(0.95,0,0,0.95,-52.2875,-28.5625)"><rect
         x="1412.5"
         y="412.5"
         width="312"
         height="80.000099"
         stroke="#343434"
         stroke-width="4.58333"
         stroke-miterlimit="8"
         fill="#1c1c1c"
         id="Umwaelzpumpe-Value"
         transform="translate(-108,-252)" /><rect
         x="1412.5"
         y="332.5"
         width="312"
         height="80.000099"
         stroke="#343434"
         stroke-width="4.58333"
         stroke-miterlimit="8"
         fill="#1c1c1c"
         id="rect66"
         transform="translate(-108,-252)" /><text
         fill="#bfbfbf"
         font-family="Calibri, Calibri_MSFontService, sans-serif"
         font-weight="400"
         font-size="46px"
         transform="translate(1319.63,135)"
         id="text66">Umwälzpumpe</text></g><g
       id="Kondensat"
       transform="matrix(0.95,0,0,0.95,-52.2875,-28.5625)"><rect
         x="995.5"
         y="412.5"
         width="296"
         height="80.000099"
         stroke="#343434"
         stroke-width="4.58333"
         stroke-miterlimit="8"
         fill="#1c1c1c"
         id="Kondensat-Value"
         transform="translate(-108,-252)" /><rect
         x="995.5"
         y="332.5"
         width="296"
         height="80.000099"
         stroke="#343434"
         stroke-width="4.58333"
         stroke-miterlimit="8"
         fill="#1c1c1c"
         id="rect44"
         transform="translate(-108,-252)" /><text
         fill="#bfbfbf"
         font-family="Calibri, Calibri_MSFontService, sans-serif"
         font-weight="400"
         font-size="46px"
         id="text44"
         x="928.6217"
         y="135">Kondensat</text></g><g
       id="EEV"
       transform="matrix(0.95,0,0,0.95,-52.2875,-28.5625)"><rect
         x="731.5"
         y="414.5"
         width="234"
         height="80.000099"
         stroke="#343434"
         stroke-width="4.58333"
         stroke-miterlimit="8"
         fill="#1c1c1c"
         id="eev_val"
         transform="translate(-108,-252)" /><rect
         x="731.5"
         y="334.5"
         width="234"
         height="80.000099"
         stroke="#343434"
         stroke-width="4.58333"
         stroke-miterlimit="8"
         fill="#1c1c1c"
         id="rect42"
         transform="translate(-108,-252)" /><text
         fill="#bfbfbf"
         font-family="Calibri, Calibri_MSFontService, sans-serif"
         font-weight="400"
         font-size="46px"
         transform="translate(704.811,137)"
         id="text42">EEV</text></g><g
       id="T-Aussen-2"
       transform="matrix(0.95,0,0,0.95,-52.2875,-28.5625)"><rect
         x="473.5"
         y="412.5"
         width="233"
         height="80.000099"
         stroke="#343434"
         stroke-width="4.58333"
         stroke-miterlimit="8"
         fill="#1c1c1c"
         id="taussen_val"
         transform="translate(-108,-252)" /><rect
         x="473.5"
         y="333.5"
         width="233"
         height="79.000099"
         stroke="#343434"
         stroke-width="4.58333"
         stroke-miterlimit="8"
         fill="#1c1c1c"
         id="rect31"
         transform="translate(-108,-252)" /><text
         fill="#bfbfbf"
         font-family="Calibri, Calibri_MSFontService, sans-serif"
         font-weight="400"
         font-size="46px"
         id="text31"
         x="400.5618"
         y="136">T-Außen </text></g><g
       id="Aussentemp"
       transform="matrix(0.95,0,0,0.95,-52.2875,-28.5625)"><rect
         x="214.5"
         y="412.5"
         width="234"
         height="80.000099"
         stroke="#343434"
         stroke-width="4.58333"
         stroke-miterlimit="8"
         fill="#1c1c1c"
         id="aussentemp_val"
         transform="translate(-108,-252)" /><rect
         x="214.5"
         y="333.5"
         width="234"
         height="79.000099"
         stroke="#343434"
         stroke-width="4.58333"
         stroke-miterlimit="8"
         fill="#1c1c1c"
         id="rect26"
         transform="translate(-108,-252)" /><text
         fill="#bfbfbf"
         font-family="Calibri, Calibri_MSFontService, sans-serif"
         font-weight="400"
         font-size="46px"
         id="text26"
         x="113.77716"
         y="136">Außentemp</text></g></g></svg>
